<svg xmlns="http://www.w3.org/2000/svg" width="512" height="512" viewBox="0 0 512 512">
  <rect width="512" height="512" fill="white" rx="96"/>
  <g transform="translate(0, 155.5) scale(1.28)">
    <g fill="#863bff">
      <!-- Inlined the logo paths but with the purple color from their brand -->
      <path d="M 0.00 86.00 C 0.50 86.00 1.00 86.00 1.00 86.00 C 1.52 73.33 6.45 65.05 11.80 55.75 C 17.15 46.45 31.45 35.38 39.75 28.61 C 48.05 21.84 57.57 17.25 67.08 14.94 C 76.59 12.62 90.53 7.27 104.08 11.06 C 117.63 14.86 106.77 31.98 98.00 38.00 C 95.17 19.77 70.94 25.77 60.23 29.58 C 49.52 33.38 32.17 47.96 26.76 59.77 C 21.36 71.58 16.90 90.73 23.39 104.75 C 29.88 118.78 47.55 121.22 59.77 115.43 C 71.98 109.63 83.23 95.91 84.00 82.00 C 68.25 85.82 58.78 87.52 46.00 94.00 C 48.03 79.82 58.18 74.29 70.75 72.61 C 83.33 70.92 95.64 67.47 108.00 63.00 C 102.14 74.66 101.98 83.90 97.94 95.08 C 93.89 106.27 90.52 117.31 86.61 128.75 C 82.69 140.19 69.84 143.24 60.00 145.00 C 65.09 135.74 69.88 128.96 74.00 120.00 C 66.47 121.05 61.10 127.14 53.25 128.40 C 45.41 129.66 40.29 132.98 29.25 130.61 C 18.20 128.23 0.80 114.45 1.00 100.00 C 0.88 99.78 0.00 100.00 0.00 100.00 L 0.00 157.00 L 271.00 157.00 L 124.00 0.00 L 0.00 0.00 Z"/>
      <path d="M 271.00 156.00 C 271.90 155.69 275.10 155.69 276.00 156.00 C 288.54 154.59 285.29 138.64 289.58 129.23 C 293.87 119.82 292.49 107.09 296.20 97.75 C 299.91 88.42 298.78 72.14 314.00 71.00 C 319.87 78.20 317.67 90.22 315.60 97.75 C 313.53 105.29 311.64 112.28 306.00 120.00 C 297.19 121.11 300.74 112.80 296.00 110.00 C 340.23 119.70 335.31 129.63 343.00 134.00 C 352.05 132.04 358.20 128.56 362.00 121.00 C 362.78 119.56 362.80 117.37 364.00 116.00 C 366.35 117.08 363.66 119.31 364.00 121.00 C 360.97 133.69 356.57 146.86 343.00 151.00 C 341.98 148.61 339.98 146.22 342.00 143.00 C 340.22 141.53 337.93 144.04 336.00 142.00 C 333.44 145.83 332.45 148.47 332.00 153.00 C 335.07 153.34 334.96 156.16 338.00 156.00 C 339.31 155.58 342.41 155.63 343.00 157.00 L 400.00 157.00 L 400.00 0.00 L 124.00 0.00 C 128.05 6.23 122.63 12.97 123.00 21.00 C 135.32 11.92 138.24 28.35 134.00 37.00 C 136.83 37.39 137.22 31.97 140.00 34.00 C 137.98 27.88 141.94 24.24 141.00 19.00 C 143.70 18.76 146.49 16.17 149.00 19.00 C 146.09 25.79 145.41 34.37 145.00 42.00 C 154.37 36.95 145.53 19.85 157.00 17.00 C 158.34 34.53 159.56 32.73 162.00 31.00 C 163.92 37.06 152.69 36.88 153.20 43.25 C 153.71 49.62 149.26 50.37 146.00 57.00 C 143.69 56.62 142.16 55.90 140.00 57.00 C 138.04 54.02 138.54 52.46 140.00 50.00 C 144.46 59.39 148.76 49.26 149.00 45.00 C 149.06 44.71 148.17 43.90 148.00 44.00 Z"/>
    </g>
  </g>
</svg>
