<svg xmlns="http://www.w3.org/2000/svg" xmlns:v="https://svgstorm.com"
viewBox = "0 0 400 157"
width="400"
height="157">
<g fill="None" fill-opacity="0.0" stroke="#000000" stroke-opacity="0.02" stroke-width="0.3"><path d="
M 0.00 86.00 
C 0.50 86.00 1.00 86.00 1.00 86.00
C 1.52 73.33 6.45 65.05 11.80 55.75 C 17.15 46.45 31.45 35.38 39.75 28.61 C 48.05 21.84 57.57 17.25 67.08 14.94 C 76.59 12.62 90.53 7.27 104.08 11.06 C 117.63 14.86 106.77 31.98 98.00 38.00
C 95.17 19.77 70.94 25.77 60.23 29.58 C 49.52 33.38 32.17 47.96 26.76 59.77 C 21.36 71.58 16.90 90.73 23.39 104.75 C 29.88 118.78 47.55 121.22 59.77 115.43 C 71.98 109.63 83.23 95.91 84.00 82.00
C 68.25 85.82 58.78 87.52 46.00 94.00
C 48.03 79.82 58.18 74.29 70.75 72.61 C 83.33 70.92 95.64 67.47 108.00 63.00
C 102.14 74.66 101.98 83.90 97.94 95.08 C 93.89 106.27 90.52 117.31 86.61 128.75 C 82.69 140.19 69.84 143.24 60.00 145.00
C 65.09 135.74 69.88 128.96 74.00 120.00
C 66.47 121.05 61.10 127.14 53.25 128.40 C 45.41 129.66 40.29 132.98 29.25 130.61 C 18.20 128.23 0.80 114.45 1.00 100.00
C 0.88 99.78 0.00 100.00 0.00 100.00
L 0.00 157.00
L 271.00 157.00
C 271.00 156.50 271.00 156.00 271.00 156.00
C 268.63 155.56 268.37 154.83 266.00 154.00
C 267.30 143.80 270.56 135.05 272.80 126.75 C 275.04 118.45 275.30 120.54 274.00 112.00
C 263.46 121.90 254.55 123.26 244.25 128.40 C 233.96 133.54 212.63 129.02 216.00 112.00
C 201.36 122.85 194.75 125.66 179.77 131.21 C 164.79 136.76 146.92 124.88 154.00 104.00
C 148.67 111.18 136.95 114.95 132.87 107.08 C 128.79 99.21 132.10 88.73 136.00 82.00
C 126.52 85.97 123.47 95.71 120.43 104.77 C 117.38 113.83 114.42 124.23 113.00 134.00
C 108.01 136.57 101.56 137.63 96.00 135.00
C 102.38 113.93 107.49 93.03 111.00 72.00
C 116.19 67.48 123.05 67.49 129.00 70.00
C 129.34 73.59 125.50 76.47 129.00 79.00
C 133.35 68.80 141.43 67.44 151.00 67.00
C 161.96 80.00 150.98 100.82 136.00 101.00
C 139.88 112.07 155.21 100.80 157.57 94.23 C 159.93 87.66 165.88 79.16 173.25 74.20 C 180.61 69.24 187.96 63.84 198.74 65.40 C 209.52 66.97 212.35 78.76 211.22 88.22 C 210.09 97.69 206.69 102.70 204.00 112.00
C 221.11 106.37 217.08 88.09 228.19 77.75 C 239.31 67.42 253.16 57.02 267.30 66.71 C 281.45 76.40 269.51 99.97 266.00 110.00
C 271.58 107.79 274.76 102.72 280.00 102.00
C 281.59 91.24 285.02 78.26 287.40 68.25 C 289.77 58.24 293.42 39.48 309.00 47.00
C 306.72 55.84 305.52 61.20 303.00 71.00
C 311.85 58.86 327.97 56.22 333.58 68.77 C 339.18 81.32 332.38 96.31 330.00 107.00
C 333.54 105.23 335.62 104.40 340.00 102.00
C 339.73 90.71 343.14 85.50 345.13 76.08 C 347.12 66.67 352.31 57.02 367.00 61.00
C 363.48 71.68 361.01 78.67 358.20 89.25 C 355.39 99.82 353.05 106.48 352.00 119.00
C 367.17 113.67 364.51 95.81 368.20 85.75 C 371.89 75.69 375.41 57.23 391.00 60.00
C 389.64 76.00 384.58 88.31 380.00 102.00
C 386.42 102.95 391.84 97.13 396.00 94.00
C 397.66 94.54 398.33 96.56 400.00 97.00
L 400.00 0.00
L 124.00 0.00
C 128.05 6.23 122.63 12.97 123.00 21.00
C 135.32 11.92 138.24 28.35 134.00 37.00
C 136.83 37.39 137.22 31.97 140.00 34.00
C 137.98 27.88 141.94 24.24 141.00 19.00
C 143.70 18.76 146.49 16.17 149.00 19.00
C 146.09 25.79 145.41 34.37 145.00 42.00
C 154.37 36.95 145.53 19.85 157.00 17.00
C 158.92 24.10 156.06 28.66 155.00 35.00
C 158.34 34.53 159.56 32.73 162.00 31.00
C 163.92 37.06 152.69 36.88 153.20 43.25 C 153.71 49.62 149.26 50.37 146.00 57.00
C 143.69 56.62 142.16 55.90 140.00 57.00
C 138.04 54.02 138.54 52.46 140.00 50.00
C 144.46 59.39 148.76 49.26 149.00 45.00
C 149.06 44.71 148.17 43.90 148.00 44.00
C 145.06 45.77 144.91 47.97 141.00 48.00
C 139.67 44.59 138.96 40.60 140.00 36.00
C 134.62 41.95 116.16 52.50 114.61 39.25 C 113.05 25.99 117.09 12.63 120.00 0.00
L 0.00 0.00
L 0.00 86.00 Z"/>
</g>
<g fill="None" fill-opacity="0.0" stroke="#000000" stroke-opacity="0.90" stroke-width="0.3"><path d="
M 148.00 44.00 
C 148.04 42.73 148.54 41.27 150.00 41.00
C 149.72 42.28 150.76 44.50 149.00 45.00
C 148.76 49.26 144.46 59.39 140.00 50.00
C 138.54 52.46 138.04 54.02 140.00 57.00
C 142.16 55.90 143.69 56.62 146.00 57.00
C 149.26 50.37 153.71 49.62 153.20 43.25 C 152.69 36.88 163.92 37.06 162.00 31.00
C 159.56 32.73 158.34 34.53 155.00 35.00
C 156.06 28.66 158.92 24.10 157.00 17.00
C 145.53 19.85 154.37 36.95 145.00 42.00
C 145.41 34.37 146.09 25.79 149.00 19.00
C 146.49 16.17 143.70 18.76 141.00 19.00
C 141.94 24.24 137.98 27.88 140.00 34.00
C 137.22 31.97 136.83 37.39 134.00 37.00
C 138.24 28.35 135.32 11.92 123.00 21.00
C 122.63 12.97 128.05 6.23 124.00 0.00
L 120.00 0.00
C 117.09 12.63 113.05 25.99 114.61 39.25 C 116.16 52.50 134.62 41.95 140.00 36.00
C 138.96 40.60 139.67 44.59 141.00 48.00
C 144.91 47.97 145.06 45.77 148.00 44.00
M 126.00 22.00 
C 132.04 27.81 127.64 37.62 125.00 43.00
C 118.62 39.04 120.45 26.41 126.00 22.00 Z"/>
</g>
<g fill="None" fill-opacity="0.0" stroke="#000000" stroke-opacity="0.96" stroke-width="0.3"><path d="
M 1.00 86.00 
C 0.81 90.59 0.74 95.41 1.00 100.00
C 0.80 114.45 18.20 128.23 29.25 130.61 C 40.29 132.98 45.41 129.66 53.25 128.40 C 61.10 127.14 66.47 121.05 74.00 120.00
C 69.88 128.96 65.09 135.74 60.00 145.00
C 69.84 143.24 82.69 140.19 86.61 128.75 C 90.52 117.31 93.89 106.27 97.94 95.08 C 101.98 83.90 102.14 74.66 108.00 63.00
C 95.64 67.47 83.33 70.92 70.75 72.61 C 58.18 74.29 48.03 79.82 46.00 94.00
C 58.78 87.52 68.25 85.82 84.00 82.00
C 83.23 95.91 71.98 109.63 59.77 115.43 C 47.55 121.22 29.88 118.78 23.39 104.75 C 16.90 90.73 21.36 71.58 26.76 59.77 C 32.17 47.96 49.52 33.38 60.23 29.58 C 70.94 25.77 95.17 19.77 98.00 38.00
C 106.77 31.98 117.63 14.86 104.08 11.06 C 90.53 7.27 76.59 12.62 67.08 14.94 C 57.57 17.25 48.05 21.84 39.75 28.61 C 31.45 35.38 17.15 46.45 11.80 55.75 C 6.45 65.05 1.52 73.33 1.00 86.00 Z"/>
</g>
<g fill="None" fill-opacity="0.0" stroke="#000000" stroke-opacity="0.13" stroke-width="0.3"><path d="
M 126.00 22.00 
C 120.45 26.41 118.62 39.04 125.00 43.00
C 127.64 37.62 132.04 27.81 126.00 22.00 Z"/>
</g>
<g fill="None" fill-opacity="0.0" stroke="#000000" stroke-opacity="0.73" stroke-width="0.3"><path d="
M 148.00 44.00 
C 148.17 43.90 149.06 44.71 149.00 45.00
C 150.76 44.50 149.72 42.28 150.00 41.00
C 148.54 41.27 148.04 42.73 148.00 44.00 Z"/>
</g>
<g fill="None" fill-opacity="0.0" stroke="#000000" stroke-opacity="0.95" stroke-width="0.3"><path d="
M 271.00 156.00 
C 271.90 155.69 275.10 155.69 276.00 156.00
C 288.54 154.59 285.29 138.64 289.58 129.23 C 293.87 119.82 292.49 107.09 296.20 97.75 C 299.91 88.42 298.78 72.14 314.00 71.00
C 319.87 78.20 317.67 90.22 315.60 97.75 C 313.53 105.29 311.64 112.28 306.00 120.00
C 297.19 121.11 300.74 112.80 296.00 110.00
C 294.55 115.57 295.26 117.56 295.00 124.00
C 303.29 130.72 311.63 124.13 317.30 121.29 C 322.98 118.44 330.38 115.99 336.00 110.00
C 340.23 119.70 335.31 129.63 343.00 134.00
C 352.05 132.04 358.20 128.56 362.00 121.00
C 362.78 119.56 362.80 117.37 364.00 116.00
C 366.35 117.08 363.66 119.31 364.00 121.00
C 360.97 133.69 356.57 146.86 343.00 151.00
C 341.98 148.61 339.98 146.22 342.00 143.00
C 340.22 141.53 337.93 144.04 336.00 142.00
C 333.44 145.83 332.45 148.47 332.00 153.00
C 335.07 153.34 334.96 156.16 338.00 156.00
C 339.31 155.58 342.41 155.63 343.00 157.00
L 347.00 157.00
C 362.43 148.32 374.27 130.63 375.00 115.00
C 384.58 108.78 390.49 103.80 400.00 99.00
L 400.00 97.00
C 398.33 96.56 397.66 94.54 396.00 94.00
C 391.84 97.13 386.42 102.95 380.00 102.00
C 384.58 88.31 389.64 76.00 391.00 60.00
C 375.41 57.23 371.89 75.69 368.20 85.75 C 364.51 95.81 367.17 113.67 352.00 119.00
C 353.05 106.48 355.39 99.82 358.20 89.25 C 361.01 78.67 363.48 71.68 367.00 61.00
C 352.31 57.02 347.12 66.67 345.13 76.08 C 343.14 85.50 339.73 90.71 340.00 102.00
C 335.62 104.40 333.54 105.23 330.00 107.00
C 332.38 96.31 339.18 81.32 333.58 68.77 C 327.97 56.22 311.85 58.86 303.00 71.00
C 305.52 61.20 306.72 55.84 309.00 47.00
C 293.42 39.48 289.77 58.24 287.40 68.25 C 285.02 78.26 281.59 91.24 280.00 102.00
C 274.76 102.72 271.58 107.79 266.00 110.00
C 269.51 99.97 281.45 76.40 267.30 66.71 C 253.16 57.02 239.31 67.42 228.19 77.75 C 217.08 88.09 221.11 106.37 204.00 112.00
C 206.69 102.70 210.09 97.69 211.22 88.22 C 212.35 78.76 209.52 66.97 198.74 65.40 C 187.96 63.84 180.61 69.24 173.25 74.20 C 165.88 79.16 159.93 87.66 157.57 94.23 C 155.21 100.80 139.88 112.07 136.00 101.00
C 150.98 100.82 161.96 80.00 151.00 67.00
C 141.43 67.44 133.35 68.80 129.00 79.00
C 125.50 76.47 129.34 73.59 129.00 70.00
C 123.05 67.49 116.19 67.48 111.00 72.00
C 107.49 93.03 102.38 113.93 96.00 135.00
C 101.56 137.63 108.01 136.57 113.00 134.00
C 114.42 124.23 117.38 113.83 120.43 104.77 C 123.47 95.71 126.52 85.97 136.00 82.00
C 132.10 88.73 128.79 99.21 132.87 107.08 C 136.95 114.95 148.67 111.18 154.00 104.00
C 146.92 124.88 164.79 136.76 179.77 131.21 C 194.75 125.66 201.36 122.85 216.00 112.00
C 212.63 129.02 233.96 133.54 244.25 128.40 C 254.55 123.26 263.46 121.90 274.00 112.00
C 275.30 120.54 275.04 118.45 272.80 126.75 C 270.56 135.05 267.30 143.80 266.00 154.00
C 268.37 154.83 268.63 155.56 271.00 156.00
M 236.00 123.00 
C 229.41 115.78 236.07 100.86 236.58 94.23 C 237.08 87.60 243.58 69.55 251.77 73.58 C 259.96 77.60 252.52 95.22 251.88 101.90 C 251.24 108.58 247.32 124.48 236.00 123.00
M 190.00 75.00 
C 194.47 83.52 192.11 97.71 189.93 106.08 C 187.75 114.44 185.05 125.16 173.00 125.00
C 169.39 116.17 170.98 105.50 173.20 96.75 C 175.42 88.00 178.44 76.75 190.00 75.00 Z"/>
</g>
<g fill="None" fill-opacity="0.0" stroke="#000000" stroke-opacity="0.04" stroke-width="0.3"><path d="
M 276.00 156.00 
C 275.94 156.01 276.00 157.00 276.00 157.00
L 338.00 157.00
C 338.00 156.50 338.00 156.00 338.00 156.00
C 334.96 156.16 335.07 153.34 332.00 153.00
C 332.45 148.47 333.44 145.83 336.00 142.00
C 337.93 144.04 340.22 141.53 342.00 143.00
C 339.98 146.22 341.98 148.61 343.00 151.00
C 356.57 146.86 360.97 133.69 364.00 121.00
C 363.80 121.24 362.29 120.75 362.00 121.00
C 358.20 128.56 352.05 132.04 343.00 134.00
C 335.31 129.63 340.23 119.70 336.00 110.00
C 330.38 115.99 322.98 118.44 317.30 121.29 C 311.63 124.13 303.29 130.72 295.00 124.00
C 295.26 117.56 294.55 115.57 296.00 110.00
C 300.74 112.80 297.19 121.11 306.00 120.00
C 311.64 112.28 313.53 105.29 315.60 97.75 C 317.67 90.22 319.87 78.20 314.00 71.00
C 298.78 72.14 299.91 88.42 296.20 97.75 C 292.49 107.09 293.87 119.82 289.58 129.23 C 285.29 138.64 288.54 154.59 276.00 156.00 Z"/>
</g>
<g fill="None" fill-opacity="0.0" stroke="#000000" stroke-opacity="0.04" stroke-width="0.3"><path d="
M 236.00 123.00 
C 247.32 124.48 251.24 108.58 251.88 101.90 C 252.52 95.22 259.96 77.60 251.77 73.58 C 243.58 69.55 237.08 87.60 236.58 94.23 C 236.07 100.86 229.41 115.78 236.00 123.00 Z"/>
</g>
<g fill="None" fill-opacity="0.0" stroke="#000000" stroke-opacity="0.05" stroke-width="0.3"><path d="
M 190.00 75.00 
C 178.44 76.75 175.42 88.00 173.20 96.75 C 170.98 105.50 169.39 116.17 173.00 125.00
C 185.05 125.16 187.75 114.44 189.93 106.08 C 192.11 97.71 194.47 83.52 190.00 75.00 Z"/>
</g>
<g fill="None" fill-opacity="0.0" stroke="#000000" stroke-opacity="0.56" stroke-width="0.3"><path d="
M 0.00 100.00 
C 0.00 100.00 0.88 99.78 1.00 100.00
C 0.74 95.41 0.81 90.59 1.00 86.00
C 1.00 86.00 0.50 86.00 0.00 86.00
L 0.00 100.00 Z"/>
</g>
<g fill="None" fill-opacity="0.0" stroke="#000000" stroke-opacity="0.01" stroke-width="0.3"><path d="
M 347.00 157.00 
L 400.00 157.00
L 400.00 99.00
C 390.49 103.80 384.58 108.78 375.00 115.00
C 374.27 130.63 362.43 148.32 347.00 157.00 Z"/>
</g>
<g fill="None" fill-opacity="0.0" stroke="#000000" stroke-opacity="0.58" stroke-width="0.3"><path d="
M 362.00 121.00 
C 362.29 120.75 363.80 121.24 364.00 121.00
C 363.66 119.31 366.35 117.08 364.00 116.00
C 362.80 117.37 362.78 119.56 362.00 121.00 Z"/>
</g>
<g fill="None" fill-opacity="0.0" stroke="#000000" stroke-opacity="0.33" stroke-width="0.3"><path d="
M 271.00 157.00 
L 276.00 157.00
C 276.00 157.00 275.94 156.01 276.00 156.00
C 275.10 155.69 271.90 155.69 271.00 156.00
C 271.00 156.00 271.00 156.50 271.00 157.00 Z"/>
</g>
<g fill="None" fill-opacity="0.0" stroke="#000000" stroke-opacity="0.66" stroke-width="0.3"><path d="
M 338.00 157.00 
L 343.00 157.00
C 342.41 155.63 339.31 155.58 338.00 156.00
C 338.00 156.00 338.00 156.50 338.00 157.00 Z"/>
</g>
<g fill="#000000" fill-opacity="0.02" stroke="None">
<path d="
M 0.00 86.00 
C 0.50 86.00 1.00 86.00 1.00 86.00
C 1.52 73.33 6.45 65.05 11.80 55.75 C 17.15 46.45 31.45 35.38 39.75 28.61 C 48.05 21.84 57.57 17.25 67.08 14.94 C 76.59 12.62 90.53 7.27 104.08 11.06 C 117.63 14.86 106.77 31.98 98.00 38.00
C 95.17 19.77 70.94 25.77 60.23 29.58 C 49.52 33.38 32.17 47.96 26.76 59.77 C 21.36 71.58 16.90 90.73 23.39 104.75 C 29.88 118.78 47.55 121.22 59.77 115.43 C 71.98 109.63 83.23 95.91 84.00 82.00
C 68.25 85.82 58.78 87.52 46.00 94.00
C 48.03 79.82 58.18 74.29 70.75 72.61 C 83.33 70.92 95.64 67.47 108.00 63.00
C 102.14 74.66 101.98 83.90 97.94 95.08 C 93.89 106.27 90.52 117.31 86.61 128.75 C 82.69 140.19 69.84 143.24 60.00 145.00
C 65.09 135.74 69.88 128.96 74.00 120.00
C 66.47 121.05 61.10 127.14 53.25 128.40 C 45.41 129.66 40.29 132.98 29.25 130.61 C 18.20 128.23 0.80 114.45 1.00 100.00
C 0.88 99.78 0.00 100.00 0.00 100.00
L 0.00 157.00
L 271.00 157.00
C 271.00 156.50 271.00 156.00 271.00 156.00
C 268.63 155.56 268.37 154.83 266.00 154.00
C 267.30 143.80 270.56 135.05 272.80 126.75 C 275.04 118.45 275.30 120.54 274.00 112.00
C 263.46 121.90 254.55 123.26 244.25 128.40 C 233.96 133.54 212.63 129.02 216.00 112.00
C 201.36 122.85 194.75 125.66 179.77 131.21 C 164.79 136.76 146.92 124.88 154.00 104.00
C 148.67 111.18 136.95 114.95 132.87 107.08 C 128.79 99.21 132.10 88.73 136.00 82.00
C 126.52 85.97 123.47 95.71 120.43 104.77 C 117.38 113.83 114.42 124.23 113.00 134.00
C 108.01 136.57 101.56 137.63 96.00 135.00
C 102.38 113.93 107.49 93.03 111.00 72.00
C 116.19 67.48 123.05 67.49 129.00 70.00
C 129.34 73.59 125.50 76.47 129.00 79.00
C 133.35 68.80 141.43 67.44 151.00 67.00
C 161.96 80.00 150.98 100.82 136.00 101.00
C 139.88 112.07 155.21 100.80 157.57 94.23 C 159.93 87.66 165.88 79.16 173.25 74.20 C 180.61 69.24 187.96 63.84 198.74 65.40 C 209.52 66.97 212.35 78.76 211.22 88.22 C 210.09 97.69 206.69 102.70 204.00 112.00
C 221.11 106.37 217.08 88.09 228.19 77.75 C 239.31 67.42 253.16 57.02 267.30 66.71 C 281.45 76.40 269.51 99.97 266.00 110.00
C 271.58 107.79 274.76 102.72 280.00 102.00
C 281.59 91.24 285.02 78.26 287.40 68.25 C 289.77 58.24 293.42 39.48 309.00 47.00
C 306.72 55.84 305.52 61.20 303.00 71.00
C 311.85 58.86 327.97 56.22 333.58 68.77 C 339.18 81.32 332.38 96.31 330.00 107.00
C 333.54 105.23 335.62 104.40 340.00 102.00
C 339.73 90.71 343.14 85.50 345.13 76.08 C 347.12 66.67 352.31 57.02 367.00 61.00
C 363.48 71.68 361.01 78.67 358.20 89.25 C 355.39 99.82 353.05 106.48 352.00 119.00
C 367.17 113.67 364.51 95.81 368.20 85.75 C 371.89 75.69 375.41 57.23 391.00 60.00
C 389.64 76.00 384.58 88.31 380.00 102.00
C 386.42 102.95 391.84 97.13 396.00 94.00
C 397.66 94.54 398.33 96.56 400.00 97.00
L 400.00 0.00
L 124.00 0.00
C 128.05 6.23 122.63 12.97 123.00 21.00
C 135.32 11.92 138.24 28.35 134.00 37.00
C 136.83 37.39 137.22 31.97 140.00 34.00
C 137.98 27.88 141.94 24.24 141.00 19.00
C 143.70 18.76 146.49 16.17 149.00 19.00
C 146.09 25.79 145.41 34.37 145.00 42.00
C 154.37 36.95 145.53 19.85 157.00 17.00
C 158.92 24.10 156.06 28.66 155.00 35.00
C 158.34 34.53 159.56 32.73 162.00 31.00
C 163.92 37.06 152.69 36.88 153.20 43.25 C 153.71 49.62 149.26 50.37 146.00 57.00
C 143.69 56.62 142.16 55.90 140.00 57.00
C 138.04 54.02 138.54 52.46 140.00 50.00
C 144.46 59.39 148.76 49.26 149.00 45.00
C 149.06 44.71 148.17 43.90 148.00 44.00
C 145.06 45.77 144.91 47.97 141.00 48.00
C 139.67 44.59 138.96 40.60 140.00 36.00
C 134.62 41.95 116.16 52.50 114.61 39.25 C 113.05 25.99 117.09 12.63 120.00 0.00
L 0.00 0.00
L 0.00 86.00 Z"/>
</g>
<g fill="#000000" fill-opacity="0.90" stroke="None">
<path d="
M 148.00 44.00 
C 148.04 42.73 148.54 41.27 150.00 41.00
C 149.72 42.28 150.76 44.50 149.00 45.00
C 148.76 49.26 144.46 59.39 140.00 50.00
C 138.54 52.46 138.04 54.02 140.00 57.00
C 142.16 55.90 143.69 56.62 146.00 57.00
C 149.26 50.37 153.71 49.62 153.20 43.25 C 152.69 36.88 163.92 37.06 162.00 31.00
C 159.56 32.73 158.34 34.53 155.00 35.00
C 156.06 28.66 158.92 24.10 157.00 17.00
C 145.53 19.85 154.37 36.95 145.00 42.00
C 145.41 34.37 146.09 25.79 149.00 19.00
C 146.49 16.17 143.70 18.76 141.00 19.00
C 141.94 24.24 137.98 27.88 140.00 34.00
C 137.22 31.97 136.83 37.39 134.00 37.00
C 138.24 28.35 135.32 11.92 123.00 21.00
C 122.63 12.97 128.05 6.23 124.00 0.00
L 120.00 0.00
C 117.09 12.63 113.05 25.99 114.61 39.25 C 116.16 52.50 134.62 41.95 140.00 36.00
C 138.96 40.60 139.67 44.59 141.00 48.00
C 144.91 47.97 145.06 45.77 148.00 44.00
M 126.00 22.00 
C 132.04 27.81 127.64 37.62 125.00 43.00
C 118.62 39.04 120.45 26.41 126.00 22.00 Z"/>
</g>
<g fill="#000000" fill-opacity="0.96" stroke="None">
<path d="
M 1.00 86.00 
C 0.81 90.59 0.74 95.41 1.00 100.00
C 0.80 114.45 18.20 128.23 29.25 130.61 C 40.29 132.98 45.41 129.66 53.25 128.40 C 61.10 127.14 66.47 121.05 74.00 120.00
C 69.88 128.96 65.09 135.74 60.00 145.00
C 69.84 143.24 82.69 140.19 86.61 128.75 C 90.52 117.31 93.89 106.27 97.94 95.08 C 101.98 83.90 102.14 74.66 108.00 63.00
C 95.64 67.47 83.33 70.92 70.75 72.61 C 58.18 74.29 48.03 79.82 46.00 94.00
C 58.78 87.52 68.25 85.82 84.00 82.00
C 83.23 95.91 71.98 109.63 59.77 115.43 C 47.55 121.22 29.88 118.78 23.39 104.75 C 16.90 90.73 21.36 71.58 26.76 59.77 C 32.17 47.96 49.52 33.38 60.23 29.58 C 70.94 25.77 95.17 19.77 98.00 38.00
C 106.77 31.98 117.63 14.86 104.08 11.06 C 90.53 7.27 76.59 12.62 67.08 14.94 C 57.57 17.25 48.05 21.84 39.75 28.61 C 31.45 35.38 17.15 46.45 11.80 55.75 C 6.45 65.05 1.52 73.33 1.00 86.00 Z"/>
</g>
<g fill="#000000" fill-opacity="0.13" stroke="None">
<path d="
M 126.00 22.00 
C 120.45 26.41 118.62 39.04 125.00 43.00
C 127.64 37.62 132.04 27.81 126.00 22.00 Z"/>
</g>
<g fill="#000000" fill-opacity="0.73" stroke="None">
<path d="
M 148.00 44.00 
C 148.17 43.90 149.06 44.71 149.00 45.00
C 150.76 44.50 149.72 42.28 150.00 41.00
C 148.54 41.27 148.04 42.73 148.00 44.00 Z"/>
</g>
<g fill="#000000" fill-opacity="0.95" stroke="None">
<path d="
M 271.00 156.00 
C 271.90 155.69 275.10 155.69 276.00 156.00
C 288.54 154.59 285.29 138.64 289.58 129.23 C 293.87 119.82 292.49 107.09 296.20 97.75 C 299.91 88.42 298.78 72.14 314.00 71.00
C 319.87 78.20 317.67 90.22 315.60 97.75 C 313.53 105.29 311.64 112.28 306.00 120.00
C 297.19 121.11 300.74 112.80 296.00 110.00
C 294.55 115.57 295.26 117.56 295.00 124.00
C 303.29 130.72 311.63 124.13 317.30 121.29 C 322.98 118.44 330.38 115.99 336.00 110.00
C 340.23 119.70 335.31 129.63 343.00 134.00
C 352.05 132.04 358.20 128.56 362.00 121.00
C 362.78 119.56 362.80 117.37 364.00 116.00
C 366.35 117.08 363.66 119.31 364.00 121.00
C 360.97 133.69 356.57 146.86 343.00 151.00
C 341.98 148.61 339.98 146.22 342.00 143.00
C 340.22 141.53 337.93 144.04 336.00 142.00
C 333.44 145.83 332.45 148.47 332.00 153.00
C 335.07 153.34 334.96 156.16 338.00 156.00
C 339.31 155.58 342.41 155.63 343.00 157.00
L 347.00 157.00
C 362.43 148.32 374.27 130.63 375.00 115.00
C 384.58 108.78 390.49 103.80 400.00 99.00
L 400.00 97.00
C 398.33 96.56 397.66 94.54 396.00 94.00
C 391.84 97.13 386.42 102.95 380.00 102.00
C 384.58 88.31 389.64 76.00 391.00 60.00
C 375.41 57.23 371.89 75.69 368.20 85.75 C 364.51 95.81 367.17 113.67 352.00 119.00
C 353.05 106.48 355.39 99.82 358.20 89.25 C 361.01 78.67 363.48 71.68 367.00 61.00
C 352.31 57.02 347.12 66.67 345.13 76.08 C 343.14 85.50 339.73 90.71 340.00 102.00
C 335.62 104.40 333.54 105.23 330.00 107.00
C 332.38 96.31 339.18 81.32 333.58 68.77 C 327.97 56.22 311.85 58.86 303.00 71.00
C 305.52 61.20 306.72 55.84 309.00 47.00
C 293.42 39.48 289.77 58.24 287.40 68.25 C 285.02 78.26 281.59 91.24 280.00 102.00
C 274.76 102.72 271.58 107.79 266.00 110.00
C 269.51 99.97 281.45 76.40 267.30 66.71 C 253.16 57.02 239.31 67.42 228.19 77.75 C 217.08 88.09 221.11 106.37 204.00 112.00
C 206.69 102.70 210.09 97.69 211.22 88.22 C 212.35 78.76 209.52 66.97 198.74 65.40 C 187.96 63.84 180.61 69.24 173.25 74.20 C 165.88 79.16 159.93 87.66 157.57 94.23 C 155.21 100.80 139.88 112.07 136.00 101.00
C 150.98 100.82 161.96 80.00 151.00 67.00
C 141.43 67.44 133.35 68.80 129.00 79.00
C 125.50 76.47 129.34 73.59 129.00 70.00
C 123.05 67.49 116.19 67.48 111.00 72.00
C 107.49 93.03 102.38 113.93 96.00 135.00
C 101.56 137.63 108.01 136.57 113.00 134.00
C 114.42 124.23 117.38 113.83 120.43 104.77 C 123.47 95.71 126.52 85.97 136.00 82.00
C 132.10 88.73 128.79 99.21 132.87 107.08 C 136.95 114.95 148.67 111.18 154.00 104.00
C 146.92 124.88 164.79 136.76 179.77 131.21 C 194.75 125.66 201.36 122.85 216.00 112.00
C 212.63 129.02 233.96 133.54 244.25 128.40 C 254.55 123.26 263.46 121.90 274.00 112.00
C 275.30 120.54 275.04 118.45 272.80 126.75 C 270.56 135.05 267.30 143.80 266.00 154.00
C 268.37 154.83 268.63 155.56 271.00 156.00
M 236.00 123.00 
C 229.41 115.78 236.07 100.86 236.58 94.23 C 237.08 87.60 243.58 69.55 251.77 73.58 C 259.96 77.60 252.52 95.22 251.88 101.90 C 251.24 108.58 247.32 124.48 236.00 123.00
M 190.00 75.00 
C 194.47 83.52 192.11 97.71 189.93 106.08 C 187.75 114.44 185.05 125.16 173.00 125.00
C 169.39 116.17 170.98 105.50 173.20 96.75 C 175.42 88.00 178.44 76.75 190.00 75.00 Z"/>
</g>
<g fill="#000000" fill-opacity="0.04" stroke="None">
<path d="
M 276.00 156.00 
C 275.94 156.01 276.00 157.00 276.00 157.00
L 338.00 157.00
C 338.00 156.50 338.00 156.00 338.00 156.00
C 334.96 156.16 335.07 153.34 332.00 153.00
C 332.45 148.47 333.44 145.83 336.00 142.00
C 337.93 144.04 340.22 141.53 342.00 143.00
C 339.98 146.22 341.98 148.61 343.00 151.00
C 356.57 146.86 360.97 133.69 364.00 121.00
C 363.80 121.24 362.29 120.75 362.00 121.00
C 358.20 128.56 352.05 132.04 343.00 134.00
C 335.31 129.63 340.23 119.70 336.00 110.00
C 330.38 115.99 322.98 118.44 317.30 121.29 C 311.63 124.13 303.29 130.72 295.00 124.00
C 295.26 117.56 294.55 115.57 296.00 110.00
C 300.74 112.80 297.19 121.11 306.00 120.00
C 311.64 112.28 313.53 105.29 315.60 97.75 C 317.67 90.22 319.87 78.20 314.00 71.00
C 298.78 72.14 299.91 88.42 296.20 97.75 C 292.49 107.09 293.87 119.82 289.58 129.23 C 285.29 138.64 288.54 154.59 276.00 156.00 Z"/>
</g>
<g fill="#000000" fill-opacity="0.04" stroke="None">
<path d="
M 236.00 123.00 
C 247.32 124.48 251.24 108.58 251.88 101.90 C 252.52 95.22 259.96 77.60 251.77 73.58 C 243.58 69.55 237.08 87.60 236.58 94.23 C 236.07 100.86 229.41 115.78 236.00 123.00 Z"/>
</g>
<g fill="#000000" fill-opacity="0.05" stroke="None">
<path d="
M 190.00 75.00 
C 178.44 76.75 175.42 88.00 173.20 96.75 C 170.98 105.50 169.39 116.17 173.00 125.00
C 185.05 125.16 187.75 114.44 189.93 106.08 C 192.11 97.71 194.47 83.52 190.00 75.00 Z"/>
</g>
<g fill="#000000" fill-opacity="0.56" stroke="None">
<path d="
M 0.00 100.00 
C 0.00 100.00 0.88 99.78 1.00 100.00
C 0.74 95.41 0.81 90.59 1.00 86.00
C 1.00 86.00 0.50 86.00 0.00 86.00
L 0.00 100.00 Z"/>
</g>
<g fill="#000000" fill-opacity="0.01" stroke="None">
<path d="
M 347.00 157.00 
L 400.00 157.00
L 400.00 99.00
C 390.49 103.80 384.58 108.78 375.00 115.00
C 374.27 130.63 362.43 148.32 347.00 157.00 Z"/>
</g>
<g fill="#000000" fill-opacity="0.58" stroke="None">
<path d="
M 362.00 121.00 
C 362.29 120.75 363.80 121.24 364.00 121.00
C 363.66 119.31 366.35 117.08 364.00 116.00
C 362.80 117.37 362.78 119.56 362.00 121.00 Z"/>
</g>
<g fill="#000000" fill-opacity="0.33" stroke="None">
<path d="
M 271.00 157.00 
L 276.00 157.00
C 276.00 157.00 275.94 156.01 276.00 156.00
C 275.10 155.69 271.90 155.69 271.00 156.00
C 271.00 156.00 271.00 156.50 271.00 157.00 Z"/>
</g>
<g fill="#000000" fill-opacity="0.66" stroke="None">
<path d="
M 338.00 157.00 
L 343.00 157.00
C 342.41 155.63 339.31 155.58 338.00 156.00
C 338.00 156.00 338.00 156.50 338.00 157.00 Z"/>
</g>
</svg>